<svg width="23" height="23" viewBox="0 0 23 23" fill="none" xmlns="http://www.w3.org/2000/svg">
<path d="M18.6884 9.34238C18.6884 11.404 18.019 13.3084 16.8915 14.8535L22.5788 20.5443C23.1404 21.1057 23.1404 22.0175 22.5788 22.5789C22.0173 23.1404 21.1053 23.1404 20.5438 22.5789L14.8564 16.8882C13.311 18.02 11.4062 18.6848 9.34421 18.6848C4.18243 18.6848 0 14.5031 0 9.34238C0 4.18161 4.18243 0 9.34421 0C14.506 0 18.6884 4.18161 18.6884 9.34238ZM9.34421 15.8102C10.1937 15.8102 11.0349 15.6429 11.8198 15.3179C12.6047 14.9928 13.3178 14.5164 13.9185 13.9158C14.5192 13.3152 14.9957 12.6022 15.3208 11.8175C15.6459 11.0328 15.8133 10.1917 15.8133 9.34238C15.8133 8.49302 15.6459 7.65197 15.3208 6.86726C14.9957 6.08255 14.5192 5.36955 13.9185 4.76895C13.3178 4.16836 12.6047 3.69195 11.8198 3.36691C11.0349 3.04187 10.1937 2.87458 9.34421 2.87458C8.49468 2.87458 7.65347 3.04187 6.8686 3.36691C6.08374 3.69195 5.37059 4.16836 4.76989 4.76895C4.16918 5.36955 3.69267 6.08255 3.36757 6.86726C3.04247 7.65197 2.87514 8.49302 2.87514 9.34238C2.87514 10.1917 3.04247 11.0328 3.36757 11.8175C3.69267 12.6022 4.16918 13.3152 4.76989 13.9158C5.37059 14.5164 6.08374 14.9928 6.8686 15.3179C7.65347 15.6429 8.49468 15.8102 9.34421 15.8102Z" fill="white"/>
</svg>
